<svg width="24" height="24" viewBox="0 0 24 24" fill="none" xmlns="http://www.w3.org/2000/svg">
<path d="M19.3643 7.23047C19.8115 7.23047 20.1215 6.77066 19.9538 6.34901C19.3584 4.85193 17.9144 3.79297 16.2316 3.79297H15.4536C15.1635 2.23436 13.82 1 12.1759 1H10.8241C9.18107 1 7.83663 2.23355 7.54636 3.79297H6.76844C5.08561 3.79297 3.64155 4.85193 3.04618 6.34901C2.8785 6.77066 3.18855 7.23047 3.63572 7.23047H19.3643ZM10.8241 2.28906H12.1759C13.1011 2.28906 13.8865 2.92216 14.1509 3.79297H8.84914C9.11352 2.92216 9.89887 2.28906 10.8241 2.28906Z" fill="currentColor"/>
<path d="M5.3765 21.2037C5.44701 22.211 6.27998 23 7.27276 23H15.7271C16.7199 23 17.5528 22.211 17.6233 21.2037L18.5115 8.51953H4.4884L5.3765 21.2037ZM13.2328 11.9678C13.2503 11.6123 13.5484 11.3381 13.8974 11.3563C14.2469 11.3741 14.5161 11.6767 14.4986 12.0322L14.1606 18.9072C14.1437 19.2517 13.8637 19.5195 13.5283 19.5195C13.1634 19.5195 12.8768 19.2092 12.8948 18.8428L13.2328 11.9678ZM9.10252 11.3563C9.4516 11.3385 9.7496 11.6123 9.76705 11.9678L10.105 18.8428C10.123 19.2093 9.83625 19.5195 9.47158 19.5195C9.13615 19.5195 8.85614 19.2517 8.8392 18.9072L8.50123 12.0322C8.48378 11.6767 8.75298 11.3741 9.10252 11.3563Z" fill="currentColor"/>
</svg>
